Coordinates
nRows=285
nColumns=2
inDegrees=yes
endheader
time	ankle_angle_r	
2.39501	 -4.608154	
2.42827	 -4.653931	
2.46154	 -4.684448	
2.4948	 -4.638672	
2.52806	 -4.699707	
2.56133	 -4.684448	
2.59459	 -4.577637	
2.62786	 -4.714966	
2.66112	 -4.745483	
2.69438	 -4.760742	
2.72765	 -4.653931	
2.76091	 -4.837036	
2.79418	 -4.745483	
2.82744	 -4.852295	
2.8607	 -4.852295	
2.89397	 -4.760742	
2.92723	 -4.776001	
2.9605	 -4.806519	
2.99376	 -4.745483	
3.02702	 -4.821777	
3.06029	 -4.821777	
3.09355	 -4.714966	
3.12682	 -4.821777	
3.16008	 -4.837036	
3.19334	 -4.730225	
3.22661	 -4.821777	
3.25987	 -4.806519	
3.29314	 -4.760742	
3.3264	 -4.791260	
3.35966	 -4.821777	
3.39293	 -4.745483	
3.42619	 -4.821777	
3.45946	 -4.806519	
3.49272	 -4.806519	
3.52598	 -4.837036	
3.55925	 -4.760742	
3.59251	 -4.760742	
3.62578	 -4.791260	
3.65904	 -4.806519	
3.6923	 -4.730225	
3.72557	 -4.821777	
3.75883	 -4.776001	
3.7921	 -4.745483	
3.82536	 -4.852295	
3.85862	 -4.745483	
3.89189	 -4.730225	
3.92515	 -4.821777	
3.95842	 -4.684448	
3.99168	 -4.730225	
4.02494	 -4.730225	
4.05821	 -4.638672	
4.09147	 -4.714966	
4.12474	 -4.806519	
4.158	 -4.669189	
4.19126	 -4.699707	
4.22453	 -4.821777	
4.25779	 -4.730225	
4.29106	 -4.760742	
4.32432	 -4.806519	
4.35758	 -4.730225	
4.39085	 -4.699707	
4.42411	 -4.791260	
4.45738	 -4.760742	
4.49064	 -4.714966	
4.5239	 -4.791260	
4.55717	 -4.623413	
4.59043	 -4.669189	
4.6237	 -4.714966	
4.65696	 -4.531860	
4.69022	 -4.531860	
4.72349	 -4.623413	
4.75675	 -4.531860	
4.79002	 -4.516602	
4.82328	 -4.592896	
4.85654	 -4.531860	
4.88981	 -4.501343	
4.92307	 -4.592896	
4.95634	 -4.562378	
4.9896	 -4.516602	
5.02286	 -4.608154	
5.05613	 -4.531860	
5.08939	 -4.501343	
5.12266	 -4.608154	
5.15592	 -4.531860	
5.18918	 -4.531860	
5.22245	 -4.653931	
5.25571	 -4.547119	
5.28898	 -4.531860	
5.32224	 -4.608154	
5.3555	 -4.562378	
5.38877	 -4.562378	
5.42203	 -4.592896	
5.4553	 -4.577637	
5.48856	 -4.577637	
5.52182	 -4.623413	
5.55509	 -4.623413	
5.58835	 -4.653931	
5.62162	 -4.714966	
5.65488	 -4.699707	
5.68814	 -4.638672	
5.72141	 -4.699707	
5.75467	 -4.699707	
5.78794	 -4.638672	
5.8212	 -4.776001	
5.85446	 -4.714966	
5.88773	 -4.745483	
5.92099	 -4.791260	
5.95426	 -4.714966	
5.98752	 -4.714966	
6.02078	 -4.760742	
6.05405	 -4.653931	
6.08731	 -4.745483	
6.12058	 -4.684448	
6.15384	 -4.653931	
6.1871	 -4.653931	
6.22037	 -4.653931	
6.25363	 -4.592896	
6.2869	 -4.638672	
6.32016	 -4.638672	
6.35342	 -4.577637	
6.38669	 -4.653931	
6.41995	 -4.653931	
6.45322	 -4.592896	
6.48648	 -4.653931	
6.51974	 -4.653931	
6.55301	 -4.577637	
6.58627	 -4.653931	
6.61954	 -4.653931	
6.6528	 -4.608154	
6.68606	 -4.684448	
6.71933	 -4.653931	
6.75259	 -4.562378	
6.78586	 -4.669189	
6.81912	 -4.653931	
6.85238	 -4.623413	
6.88565	 -4.699707	
6.91891	 -4.699707	
6.95218	 -4.669189	
6.98544	 -4.714966	
7.0187	 -4.760742	
7.05197	 -4.669189	
7.08523	 -4.776001	
7.1185	 -4.821777	
7.15176	 -4.653931	
7.18502	 -4.776001	
7.21829	 -4.699707	
7.25155	 -4.730225	
7.28482	 -4.745483	
7.31808	 -4.821777	
7.35134	 -4.699707	
7.38461	 -4.776001	
7.41787	 -4.791260	
7.45114	 -4.714966	
7.4844	 -4.776001	
7.51766	 -4.776001	
7.55093	 -4.699707	
7.58419	 -4.699707	
7.61746	 -4.776001	
7.65072	 -4.608154	
7.68398	 -4.638672	
7.71725	 -4.699707	
7.75051	 -4.592896	
7.78378	 -4.623413	
7.81704	 -4.669189	
7.8503	 -4.592896	
7.88357	 -4.623413	
7.91683	 -4.638672	
7.9501	 -4.577637	
7.98336	 -4.669189	
8.01662	 -4.638672	
8.04989	 -4.562378	
8.08315	 -4.653931	
8.11642	 -4.638672	
8.14968	 -4.592896	
8.18294	 -4.653931	
8.21621	 -4.562378	
8.24947	 -4.577637	
8.28274	 -4.638672	
8.316	 -4.562378	
8.34926	 -4.577637	
8.38253	 -4.638672	
8.41579	 -4.592896	
8.44906	 -4.577637	
8.48232	 -4.714966	
8.51558	 -4.608154	
8.54885	 -4.653931	
8.58211	 -4.669189	
8.61538	 -4.638672	
8.64864	 -4.653931	
8.6819	 -4.714966	
8.71517	 -4.730225	
8.74843	 -4.653931	
8.7817	 -4.714966	
8.81496	 -4.714966	
8.84822	 -4.592896	
8.88149	 -4.745483	
8.91475	 -4.653931	
8.94802	 -4.684448	
8.98128	 -4.760742	
9.01454	 -4.653931	
9.04781	 -4.760742	
9.08107	 -4.821777	
9.11434	 -4.684448	
9.1476	 -4.669189	
9.18086	 -4.791260	
9.21413	 -4.684448	
9.24739	 -4.791260	
9.28066	 -4.760742	
9.31392	 -4.699707	
9.34718	 -4.684448	
9.38045	 -4.806519	
9.41371	 -4.776001	
9.44698	 -4.684448	
9.48024	 -4.776001	
9.5135	 -4.730225	
9.54677	 -4.684448	
9.58003	 -4.791260	
9.6133	 -4.714966	
9.64656	 -4.623413	
9.67982	 -4.699707	
9.71309	 -4.714966	
9.74635	 -4.623413	
9.77962	 -4.638672	
9.81288	 -4.623413	
9.84614	 -4.577637	
9.87941	 -4.653931	
9.91267	 -4.608154	
9.94594	 -4.531860	
9.9792	 -4.623413	
10.0125	 -4.547119	
10.0457	 -4.547119	
10.079	 -4.623413	
10.1123	 -4.562378	
10.1455	 -4.547119	
10.1788	 -4.638672	
10.212	 -4.577637	
10.2453	 -4.562378	
10.2786	 -4.623413	
10.3118	 -4.516602	
10.3451	 -4.562378	
10.3784	 -4.608154	
10.4116	 -4.531860	
10.4449	 -4.592896	
10.4782	 -4.638672	
10.5114	 -4.547119	
10.5447	 -4.592896	
10.578	 -4.669189	
10.6112	 -4.653931	
10.6445	 -4.653931	
10.6777	 -4.699707	
10.711	 -4.562378	
10.7443	 -4.684448	
10.7775	 -4.776001	
10.8108	 -4.699707	
10.8441	 -4.714966	
10.8773	 -4.776001	
10.9106	 -4.669189	
10.9439	 -4.745483	
10.9771	 -4.806519	
11.0104	 -4.806519	
11.0436	 -4.730225	
11.0769	 -4.837036	
11.1102	 -4.714966	
11.1434	 -4.852295	
11.1767	 -4.882813	
11.21	 -4.730225	
11.2432	 -4.745483	
11.2765	 -4.867554	
11.3098	 -4.730225	
11.343	 -4.791260	
11.3763	 -4.806519	
11.4096	 -4.776001	
11.4428	 -4.837036	
11.4761	 -4.852295	
11.5093	 -4.821777	
11.5426	 -4.837036	
11.5759	 -4.852295	
11.6091	 -4.806519	
11.6424	 -4.821777	
11.6757	 -4.898071	
11.7089	 -4.760742	
11.7422	 -4.837036	
11.7755	 -4.898071	
11.8087	 -4.776001	
11.842	 -4.852295	
